<svg width="47" height="56" viewBox="0 0 47 56" fill="none" xmlns="http://www.w3.org/2000/svg">
<path d="M46.2083 8.75838C46.2083 8.9628 46.171 9.17652 46.0965 9.37166C45.7424 10.2823 44.4193 12.754 40.6178 12.754C40.6178 12.754 37.8225 12.754 37.8225 14.6124C37.8225 16.4708 41.5495 22.0461 41.5495 28.5505C41.5495 28.5505 41.5495 34.1258 37.8225 36.9134C34.0955 39.7011 35.959 52.71 35.959 52.71C35.959 52.71 39.686 52.71 39.686 54.5684V55.4976H33.1637C33.1637 55.4976 30.3685 52.71 30.3685 47.1347C30.3685 43.5015 30.7691 41.448 31.0393 40.4537C31.1512 40.1471 31.2257 39.9241 31.263 39.8033C31.2071 39.9148 31.1325 40.1192 31.0393 40.4537C30.3219 42.4329 28.0484 47.7666 24.2376 48.8166C24.5357 47.8131 24.778 46.6051 24.778 45.2763C24.778 39.7011 20.1192 38.7719 20.1192 38.7719C20.1192 38.7719 23.8462 40.6303 23.8462 44.3471C23.8462 46.2055 23.3803 47.8316 22.9145 48.9932C22.4486 50.1547 21.9827 50.8516 21.9827 50.8516C21.9827 50.8516 22.9145 52.71 25.7097 52.71C28.505 52.71 28.505 54.5684 28.505 54.5684V55.4976H13.597C9.86995 55.4976 6.14294 54.5684 6.14294 48.9932C6.14294 43.4179 6.14294 40.6303 8.9382 36.9134C11.7335 33.1966 15.4605 34.1258 21.051 26.6921C24.6755 21.8788 26.3433 17.0562 27.0701 14.2593C27.3682 14.5288 27.7782 14.6124 28.505 14.6124C30.3685 14.6124 35.959 14.6124 33.1637 7.17872C34.0955 12.754 31.3002 13.6832 29.4367 13.6832C28.3279 13.6832 27.8807 13.0235 27.4987 12.2987C27.2471 11.7969 27.0142 11.2672 26.6415 10.8956C25.7097 9.96635 24.778 10.8956 24.778 8.10793C24.778 5.3203 28.505 0.674255 34.0955 0.674255C39.686 0.674255 40.6178 5.3203 40.6178 5.3203C41.7265 6.42606 43.4969 6.87208 44.7454 7.05793C45.584 7.17872 46.2083 7.90351 46.2083 8.75838Z" fill="#41645B"/>
<path d="M31.263 39.8033V39.794C31.2816 39.7661 31.2909 39.7475 31.2909 39.7289C31.2909 39.7104 31.3002 39.7011 31.3002 39.7011" fill="#41645B"/>
<path d="M4.27944 36.9134C2.99362 40.7697 4.37261 42.8418 5.35095 43.7617C5.21119 45.2856 5.21119 46.9768 5.21119 48.9932C5.21119 49.4113 5.22982 49.8109 5.27641 50.1825C-0.453864 45.5272 -1.18063 38.5581 1.48418 34.1258C4.27944 29.4798 10.8017 28.5505 11.7335 29.4798C11.7335 29.4798 6.14294 31.3382 4.27944 36.9134Z" fill="#41645B"/>
</svg>
