<svg width="49" height="35" viewBox="0 0 49 35" fill="none" xmlns="http://www.w3.org/2000/svg">
<path d="M20.909 16.9488C21.8817 17.8677 23.1686 18.3805 24.5067 18.3824C25.8448 18.3844 27.1331 17.8753 28.1085 16.9592L45.7397 0.39725C45.1091 0.135358 44.4329 0.000366951 43.75 0H5.25C4.60277 0.00369588 3.96188 0.127721 3.36 0.36575L20.909 16.9488Z" fill="#519E8A"/>
<path d="M30.5042 19.5107C28.8772 21.035 26.7304 21.8817 24.5009 21.8784C22.2715 21.8752 20.1271 21.0222 18.5045 19.4932L0.7 2.67225C0.246239 3.45591 0.00494745 4.34446 0 5.25V29.75C0 31.1424 0.553124 32.4777 1.53769 33.4623C2.52226 34.4469 3.85761 35 5.25 35H43.75C45.1424 35 46.4777 34.4469 47.4623 33.4623C48.4469 32.4777 49 31.1424 49 29.75V5.25C48.9941 4.37639 48.7671 3.51848 48.3402 2.75625L30.5042 19.5107Z" fill="#519E8A"/>
</svg>
