<svg width="65" height="57" viewBox="0 0 65 57" fill="none" xmlns="http://www.w3.org/2000/svg">
<path d="M3.05749 30.1357H14.1592V35.415H3.05749V30.1357Z" fill="#41645B"/>
<path d="M50.8584 22.5152H61.959V27.8085H50.8584V22.5152Z" fill="#41645B"/>
<path d="M3.05749 22.5152H14.1592V27.8085H3.05749V22.5152Z" fill="#41645B"/>
<path d="M33.6766 14.9087H48.538V20.188H33.6766V14.9087Z" fill="#41645B"/>
<path d="M3.05749 54.5761C3.05749 55.5163 3.82013 56.2808 4.7592 56.2808H60.2596C61.1975 56.2808 61.9601 55.5163 61.9601 54.5761V43.9151H3.05749V54.5761ZM23.3653 51.7474H41.6383C42.2803 51.7474 42.7991 52.2675 42.7991 52.911C42.7991 53.5545 42.2803 54.0746 41.6383 54.0746H23.3653C22.7234 54.0746 22.2046 53.5545 22.2046 52.911C22.2046 52.2675 22.7234 51.7474 23.3653 51.7474Z" fill="#41645B"/>
<path d="M33.6766 7.30217H48.538V12.5815H33.6766V7.30217Z" fill="#41645B"/>
<path d="M50.8584 14.9087H61.959V20.188H50.8584V14.9087Z" fill="#41645B"/>
<path d="M3.05749 14.9087H14.1592V20.188H3.05749V14.9087Z" fill="#41645B"/>
<path d="M61.9601 9.00686C61.9601 8.06667 61.1975 7.30217 60.2596 7.30217H50.8584V12.5815H61.959L61.9601 9.00686Z" fill="#41645B"/>
<path d="M33.6766 22.5152H48.538V27.8085H33.6766V22.5152Z" fill="#41645B"/>
<path d="M16.4808 14.9087H31.3538V20.188H16.4808V14.9087Z" fill="#41645B"/>
<path d="M16.4808 22.5152H31.3538V27.8085H16.4808V22.5152Z" fill="#41645B"/>
<path d="M63.1105 37.7422H1.92457C1.39178 37.7515 0.927464 37.9447 0.571104 38.3007C0.309928 38.5625 0 39.0094 0 39.6575C0 40.7129 0.854334 41.5786 1.906 41.5868H63.093C63.6084 41.5786 64.089 41.3761 64.457 41.0178C64.8029 40.6617 65.0049 40.1706 65.0049 39.6575C65.0049 38.6102 64.1552 37.7503 63.1105 37.7422Z" fill="#41645B"/>
<path d="M16.4808 7.30217H31.3538V12.5815H16.4808V7.30217Z" fill="#41645B"/>
<path d="M50.8584 30.1357H61.959V35.415H50.8584V30.1357Z" fill="#41645B"/>
<path d="M16.4808 30.1357H31.3538V35.415H16.4808V30.1357Z" fill="#41645B"/>
<path d="M39.2228 3.05733C39.2228 1.74361 38.156 0.674255 36.8455 0.674255H28.1582C26.8477 0.674255 25.7809 1.74361 25.7809 3.05733V4.97379H39.2228V3.05733Z" fill="#41645B"/>
<path d="M33.6766 30.1357H48.538V35.415H33.6766V30.1357Z" fill="#41645B"/>
<path d="M14.1592 7.30217H4.7592C3.82013 7.30217 3.05749 8.06667 3.05749 9.00686V12.5815H14.1592V7.30217Z" fill="#41645B"/>
</svg>
