<svg width="37" height="50" viewBox="0 0 37 50" fill="none" xmlns="http://www.w3.org/2000/svg">
<path d="M18.5 0C28.7351 0 37 8.07315 37 18.0708C37 21.5566 35.86 24.8851 34.2739 27.6204L22.2173 48.0029C21.4615 49.3343 19.9374 50 18.5 50C17.0625 50 15.6129 49.3343 14.7827 48.0029L2.72606 27.6325C1.1276 24.897 0 21.629 0 18.0826C0 8.08525 8.26491 0 18.5 0ZM18.5 23.4085C22.2174 23.4085 25.2532 20.4431 25.2532 16.812C25.2532 13.1809 22.2174 10.2155 18.5 10.2155C14.7827 10.2155 11.7468 13.1809 11.7468 16.812C11.7468 20.4552 14.7827 23.4085 18.5 23.4085Z" fill="#519E8A"/>
</svg>
