<svg width="122" height="75" viewBox="0 0 122 75" fill="none" xmlns="http://www.w3.org/2000/svg">
<path d="M92.12 0H100.816V10.9251H117.655V18.8877H108.754L100.141 14.7193L100.816 22.1338V35.0568C100.816 43.8253 109.797 46.3042 116.915 46.1763V55.3657C106.222 55.3657 92.1201 53.2972 92.1201 39.0391L92.12 0Z" fill="#32695B"/>
<path fill-rule="evenodd" clip-rule="evenodd" d="M108.061 26.5978C109.005 26.5978 109.771 27.3637 109.771 28.309C109.771 29.254 109.005 30.02 108.061 30.02C107.117 30.02 106.351 29.254 106.351 28.309C106.351 27.3637 107.117 26.5978 108.061 26.5978Z" fill="#32695B"/>
<path fill-rule="evenodd" clip-rule="evenodd" d="M120.29 26.5978C121.234 26.5978 122 27.3637 122 28.309C122 29.254 121.234 30.02 120.29 30.02C119.346 30.02 118.58 29.254 118.58 28.309C118.58 27.3637 119.346 26.5978 120.29 26.5978Z" fill="#32695B"/>
<path fill-rule="evenodd" clip-rule="evenodd" d="M116.846 36.8598C116.452 37.2251 115.618 37.5211 114.646 37.0153C114.198 36.7816 114.305 36.1993 114.312 35.6976C114.312 35.6976 115.216 34.9041 115.396 34.4976C115.632 33.9599 112.463 33.9582 112.757 34.494C113.053 35.033 113.95 35.7311 113.95 35.7311C113.886 36.3239 114.032 36.6941 113.571 36.9642C112.422 37.539 111.728 37.2575 111.299 36.8597C110.593 36.2045 110.516 34.9566 110.369 34.9566C110.284 34.9566 110.248 35.1802 110.248 35.1802C110.193 36.2893 110.731 37.1144 111.444 37.4957C112.299 37.9531 113.529 37.8341 114.061 37.0258C114.589 37.828 115.833 37.9513 116.685 37.5041C117.406 37.1258 117.952 36.297 117.897 35.1802C117.897 35.1802 117.861 34.9566 117.775 34.9566C117.629 34.9567 117.552 36.2046 116.846 36.8598Z" fill="#32695B"/>
<path fill-rule="evenodd" clip-rule="evenodd" d="M97.3116 31.9162L107.554 33.6743C107.681 33.6963 107.766 33.8176 107.745 33.9445C107.723 34.0711 107.602 34.1574 107.475 34.1355L97.2329 32.3773C97.1062 32.3554 97.0204 32.234 97.042 32.1072V32.1068C97.0636 31.9801 97.1849 31.8942 97.3116 31.9162Z" fill="#32695B"/>
<path fill-rule="evenodd" clip-rule="evenodd" d="M96.5363 34.4252L106.923 34.7278C107.052 34.7316 107.154 34.8398 107.15 34.9684V34.9687C107.147 35.097 107.039 35.1992 106.91 35.1955L96.5225 34.8929C96.394 34.8891 96.2919 34.7806 96.2955 34.652C96.2998 34.5238 96.4078 34.4213 96.5363 34.4252Z" fill="#32695B"/>
<path fill-rule="evenodd" clip-rule="evenodd" d="M97.2144 37.171L107.509 35.7548C107.636 35.7371 107.755 35.8272 107.773 35.9546C107.79 36.0823 107.7 36.201 107.573 36.2184L97.278 37.6346C97.1501 37.6521 97.0318 37.5619 97.0144 37.4349C96.997 37.3071 97.0864 37.1887 97.2144 37.171Z" fill="#32695B"/>
<path fill-rule="evenodd" clip-rule="evenodd" d="M97.3116 31.9162L100.816 32.5177V32.9925L97.2329 32.3774C97.1062 32.3555 97.0204 32.234 97.042 32.1072V32.1069C97.0636 31.9801 97.1849 31.8942 97.3116 31.9162Z" fill="white"/>
<path fill-rule="evenodd" clip-rule="evenodd" d="M96.5363 34.4252L100.821 34.5499L100.824 35.018L96.5225 34.8929C96.394 34.8891 96.2919 34.7806 96.2955 34.652C96.2998 34.5238 96.4078 34.4213 96.5363 34.4252Z" fill="white"/>
<path fill-rule="evenodd" clip-rule="evenodd" d="M97.2144 37.171L100.931 36.6599C100.95 36.8113 100.972 36.9681 100.998 37.123L97.278 37.6346C97.1501 37.6521 97.0318 37.5619 97.0144 37.4349C96.997 37.3071 97.0864 37.1887 97.2144 37.171Z" fill="white"/>
<path d="M57.2085 34.091L78.538 21.9715C78.4174 21.9114 78.2973 21.836 78.1765 21.7456C78.0558 21.6551 77.9357 21.5193 77.8151 21.3387C77.6943 21.218 77.5592 21.0674 77.4084 20.8865C77.2576 20.7057 77.0919 20.5247 76.9111 20.3439C76.7304 20.2231 76.5347 20.0876 76.3238 19.9367C76.113 19.7861 75.9172 19.6203 75.7365 19.4393C75.495 19.3185 75.2543 19.183 75.0133 19.0322C74.7719 18.8816 74.5011 18.7458 74.1996 18.6253C73.5973 18.3239 72.8892 18.1127 72.0755 17.9922C71.2624 17.8715 70.3436 17.8113 69.3191 17.8113C66.9691 17.8113 64.9057 18.2332 63.1284 19.0772C61.3511 19.9216 59.8596 21.1575 58.6546 22.7855C57.4496 24.4135 56.5457 26.132 55.9431 27.941C55.3407 29.7498 55.0392 31.6189 55.0392 33.5484C55.0392 33.6087 55.0392 33.6538 55.0392 33.6842C55.0392 33.7143 55.0392 33.7292 55.0392 33.7292C55.0392 33.7896 55.0392 33.8197 55.0392 33.8197C55.0392 35.5682 55.3557 37.2414 55.9884 38.8397C56.621 40.4371 57.5398 41.96 58.7448 43.4071C59.9498 44.8536 61.441 45.939 63.2186 46.6626C64.996 47.3862 67.0297 47.748 69.3189 47.748C71.7896 47.748 73.853 47.4619 75.5105 46.8886C77.1674 46.3159 78.4172 45.4571 79.261 44.311C80.1048 43.1055 80.8728 41.6883 81.5658 40.0603C82.2582 38.4323 82.8762 36.5934 83.4185 34.5434C83.4185 34.5434 83.4185 34.5134 83.4185 34.4529C83.4185 34.4529 83.4486 34.4226 83.5086 34.3625C83.5086 34.3625 83.5086 34.3474 83.5086 34.3174C83.5086 34.2871 83.5086 34.272 83.5086 34.272L91.3715 34.7243C91.3715 34.8448 91.3715 34.9503 91.3715 35.0407C91.3715 35.1312 91.4016 35.2065 91.4622 35.2669C91.4622 35.3877 91.4622 35.4779 91.4622 35.5383C91.4622 35.5984 91.4622 35.6892 91.4622 35.8097C91.4622 35.87 91.4622 35.9452 91.4622 36.0356C91.4622 36.1264 91.4923 36.2015 91.5524 36.2616C91.5524 36.3824 91.5524 36.4729 91.5524 36.5332C91.5524 36.5934 91.5524 36.6537 91.5524 36.7142C91.5524 37.1964 91.5223 37.6937 91.4622 38.2064C91.4016 38.719 91.3114 39.2466 91.1908 39.7892C91.1307 40.0303 91.055 40.3019 90.965 40.603C90.8743 40.9046 90.7992 41.1757 90.7393 41.4173C90.6185 41.7184 90.5134 42.0051 90.4228 42.2761C90.3326 42.5478 90.2269 42.8338 90.1062 43.1355C89.3831 44.6427 88.4193 46.12 87.214 47.5671C86.0094 49.0142 84.5331 50.3713 82.7857 51.6369C81.0987 52.9037 79.1253 53.8532 76.8661 54.4861C74.6062 55.1195 72.0911 55.4356 69.3191 55.4356C66.1259 55.4356 63.1733 54.9387 60.4622 53.9434C57.7507 52.9489 55.3105 51.4266 53.1412 49.3761C50.9121 47.266 49.2551 44.8994 48.1705 42.2761C47.086 39.6535 46.5439 36.7442 46.5439 33.5485C46.5439 30.1719 46.9956 27.1876 47.8994 24.5947C48.8032 22.0021 50.1589 19.771 51.9666 17.9019C53.7739 16.0326 55.6719 14.4951 57.6603 13.2893C59.6487 12.0834 61.7275 11.209 63.8964 10.6663C64.1375 10.6062 64.3636 10.5611 64.5741 10.5308C64.7855 10.5007 65.0113 10.4554 65.252 10.3953C65.4932 10.3953 65.719 10.3799 65.9298 10.3499C66.1409 10.3198 66.367 10.2744 66.6077 10.2144C67.0896 10.1539 67.5569 10.1086 68.0085 10.0786C68.4608 10.0483 68.8974 10.0335 69.3189 10.0335C71.7896 10.0335 74.0945 10.3799 76.2329 11.0735C78.372 11.767 80.3455 12.807 82.1531 14.1937C83.9 15.5808 85.4818 17.1184 86.898 18.8065C88.3141 20.4946 89.5639 22.3036 90.6484 24.2329L60.7334 40.4219L57.2085 34.091Z" fill="#32695B"/>
<path d="M38.2199 25.7868L39.0201 27.243C39.0201 27.243 40.2572 25.2769 38.2199 25.7868ZM0 75V33.0056C0 29.8202 0.412898 26.9869 1.23954 24.5057C2.06559 22.0246 3.30539 19.8957 4.95842 18.1192C6.61112 16.3428 8.34041 14.8725 10.1465 13.7084C11.9524 12.5446 13.8654 11.6564 15.8856 11.0434C16.4366 10.8598 16.9876 10.7068 17.5383 10.5843C18.0897 10.4616 18.6403 10.37 19.1914 10.3087C19.4973 10.247 19.773 10.2014 20.0178 10.1707C20.2628 10.1401 20.5381 10.1247 20.8444 10.1247C21.0891 10.0635 21.3494 10.0331 21.6248 10.0331C21.9005 10.0331 22.1605 10.0331 22.4052 10.0331C25.6496 10.0331 28.4962 10.4155 30.945 11.1816C33.3937 11.9472 35.4751 13.1266 37.1894 14.7192C38.8421 16.2507 40.2654 17.8589 41.459 19.5434C42.6529 21.2279 43.5557 22.9894 44.1681 24.8272C44.4128 25.5625 44.6272 26.2974 44.8106 27.0327C44.9944 27.7677 45.1166 28.5028 45.1779 29.238C45.3005 29.973 45.3923 30.6623 45.4536 31.3057C45.5148 31.9486 45.5454 32.5767 45.5454 33.1894C45.5454 33.802 45.5148 34.4604 45.4536 35.1647C45.3923 35.8693 45.3005 36.5892 45.1779 37.3243C45.1167 38.0592 44.9944 38.7949 44.8106 39.5299C44.0678 42.5034 42.9835 44.7462 40.8588 47.0467C33.7382 54.7561 18.9503 55.8522 10.8352 51.396V44.584C11.1697 44.7841 14.8081 41.5046 19.8899 40.1481C26.1701 38.4721 33.867 38.638 36.4772 33.596C37.5471 31.5296 39.2073 28.5954 38.4429 26.7272C37.6462 24.7818 31.7756 25.4555 28.0429 23.8882C27.0502 23.4711 25.7417 21.1838 25.2771 20.688C22.768 18.0097 14.4172 20.9185 15.4066 22.1946C16.3963 23.4711 22.935 27.2173 22.7677 33.2441C22.6007 39.2712 15.5741 38.6017 13.232 34.7507C11.6168 32.0958 10.6811 29.04 9.95182 25.9411C9.41073 26.881 8.97625 27.8858 8.67748 28.9619C8.21835 30.6161 7.98866 32.5152 7.98866 34.6594V74.9996H0V75Z" fill="#32695B"/>
<path fill-rule="evenodd" clip-rule="evenodd" d="M22.5274 23.2642C23.2507 23.2642 23.8369 23.8507 23.8369 24.5749C23.8369 25.2988 23.2507 25.8856 22.5274 25.8856C21.8037 25.8856 21.2176 25.2988 21.2176 24.5749C21.2176 23.8507 21.8037 23.2642 22.5274 23.2642Z" fill="#32695B"/>
<path d="M98.4154 62.4566H99.9492L103.608 68.0498V62.4566H105.218V70.9561H103.672L100.024 65.3803V70.9561H98.4154L98.4154 62.4566ZM92.4496 63.8298C91.6671 63.8298 91.0084 64.1038 90.4762 64.65C89.9416 65.197 89.6756 65.8911 89.6756 66.7355C89.6756 67.6748 90.0114 68.4182 90.6833 68.9651C91.2052 69.3936 91.8027 69.6063 92.479 69.6063C93.2423 69.6063 93.8927 69.3281 94.4289 68.774C94.967 68.2193 95.2354 67.5366 95.2354 66.724C95.2354 65.9151 94.9651 65.2307 94.4229 64.6699C93.8831 64.1097 93.2249 63.8298 92.4496 63.8298ZM92.4731 62.2432C93.6736 62.2432 94.7071 62.6795 95.5706 63.5497C96.4367 64.4193 96.8685 65.4813 96.8685 66.7318C96.8685 67.9729 96.442 69.0222 95.5886 69.8804C94.7366 70.7392 93.7017 71.1689 92.485 71.1689C91.2101 71.1689 90.1508 70.7271 89.3088 69.8449C88.4656 68.9627 88.0435 67.9158 88.0435 66.7025C88.0435 65.8912 88.241 65.1435 88.6325 64.4614C89.0253 63.7799 89.5658 63.2397 90.2511 62.8412C90.9399 62.4427 91.681 62.2432 92.4731 62.2432ZM83.2529 62.4566H84.8617V69.417H87.2393V70.9561H83.2529V62.4566ZM77.9278 64.7151L76.7759 67.6417H79.073L77.9278 64.7151ZM77.1117 62.4566H78.7398L82.0086 70.9561H80.3271L79.6645 69.2037H76.1833L75.5046 70.9561H73.8231L77.1117 62.4566ZM72.8233 63.6128L71.6245 64.6699C71.2047 64.0858 70.7771 63.7937 70.3411 63.7937C70.1286 63.7937 69.955 63.8514 69.8205 63.9637C69.6847 64.0779 69.6181 64.2066 69.6181 64.3484C69.6181 64.4902 69.6649 64.6267 69.7616 64.7529C69.8938 64.9222 70.2894 65.2859 70.9506 65.8436C71.5675 66.3611 71.9415 66.6861 72.0737 66.8201C72.401 67.1519 72.6339 67.4679 72.7721 67.769C72.9085 68.0732 72.9769 68.4031 72.9769 68.76C72.9769 69.4583 72.7367 70.0323 72.2533 70.4884C71.7727 70.9415 71.1434 71.1687 70.3669 71.1687C69.7615 71.1687 69.235 71.0209 68.7857 70.7252C68.3359 70.4272 67.9497 69.9614 67.6302 69.3261L68.9929 68.5052C69.4031 69.2546 69.8739 69.6302 70.4065 69.6302C70.6841 69.6302 70.9195 69.5492 71.1081 69.3868C71.2978 69.2258 71.3921 69.0382 71.3921 68.8266C71.3921 68.6356 71.3213 68.4421 71.1771 68.2486C71.0354 68.0575 70.7201 67.7612 70.2325 67.3652C69.3065 66.6115 68.7089 66.0292 68.4386 65.6187C68.1683 65.2081 68.0326 64.8002 68.0326 64.3915C68.0326 63.802 68.2573 63.2966 68.7052 62.8771C69.1546 62.454 69.7082 62.243 70.3669 62.243C70.791 62.243 71.1951 62.3415 71.577 62.5375C71.9614 62.7348 72.3758 63.0918 72.8233 63.6128ZM60.2334 69.245C59.9337 68.953 59.5116 68.4717 58.9695 67.7974C58.3957 68.2709 58.1078 68.6833 58.1078 69.0383C58.1078 69.2037 58.1864 69.3558 58.3423 69.4939C58.5005 69.6321 58.6976 69.7007 58.9383 69.7007C59.2831 69.7007 59.7146 69.5492 60.2334 69.245ZM59.2632 65.7452C59.6911 65.3785 59.9058 65.057 59.9058 64.7752C59.9058 64.6291 59.8583 64.5101 59.7619 64.4176C59.6655 64.3244 59.5373 64.2794 59.3794 64.2794C59.2337 64.2794 59.1094 64.3306 59.0071 64.4356C58.9046 64.5403 58.8533 64.6604 58.8533 64.7987C58.8534 65.0744 58.9888 65.3905 59.2632 65.7452ZM62.3347 67.6141L63.3007 68.7145L62.8634 69.1111L62.4296 69.5018L63.7919 70.9561H61.8303L61.2703 70.3773C60.3773 70.9045 59.5452 71.1688 58.7787 71.1688C58.1277 71.1688 57.6013 70.9778 57.1972 70.5967C56.7951 70.2163 56.5936 69.7265 56.5936 69.1285C56.5936 68.6772 56.708 68.2529 56.9371 67.8502C57.1635 67.45 57.556 67.0359 58.1079 66.6093C57.5639 65.8736 57.2918 65.2204 57.2918 64.6549C57.2918 64.2361 57.4734 63.8219 57.8337 63.4133C58.1965 63.0047 58.7075 62.7998 59.3657 62.7998C60.0302 62.7998 60.5407 63.0029 60.8977 63.408C61.2544 63.8124 61.4319 64.2205 61.4319 64.6328C61.4319 64.956 61.3515 65.2662 61.1872 65.5618C61.0238 65.8599 60.6494 66.3005 60.0618 66.8798C60.7499 67.6928 61.1933 68.1983 61.3944 68.3972C61.5164 68.3059 61.8303 68.0438 62.3347 67.6141ZM48.6703 65.783H49.1886C49.5966 65.783 49.8786 65.7535 50.0383 65.6964C50.1981 65.637 50.3224 65.5419 50.4149 65.4079C50.5059 65.2739 50.5509 65.1122 50.5509 64.9211C50.5509 64.5912 50.4227 64.3503 50.1666 64.2006C49.9816 64.0882 49.6342 64.0311 49.1298 64.0311H48.6703L48.6703 65.783ZM48.7789 62.4566C49.7074 62.4566 50.3758 62.5412 50.7853 62.7131C51.1958 62.8845 51.521 63.1628 51.7573 63.5455C51.9942 63.9284 52.1125 64.3881 52.1125 64.9248C52.1125 65.5185 51.9567 66.0113 51.645 66.4044C51.3354 66.7973 50.9138 67.0708 50.3796 67.2246C50.0655 67.3142 49.4962 67.3568 48.6701 67.3568V70.9561H47.0612V62.4566H48.7789ZM41.1193 63.8298C40.3368 63.8298 39.678 64.1038 39.1459 64.65C38.6115 65.197 38.3454 65.8911 38.3454 66.7355C38.3454 67.6748 38.6805 68.4182 39.3527 68.9651C39.8752 69.3936 40.4725 69.6063 41.149 69.6063C41.912 69.6063 42.5624 69.3281 43.0987 68.774C43.6368 68.2193 43.9049 67.5366 43.9049 66.724C43.9049 65.9151 43.635 65.2307 43.0927 64.6699C42.5525 64.1097 41.894 63.8298 41.1193 63.8298ZM41.1427 62.2432C42.3435 62.2432 43.3767 62.6795 44.24 63.5497C45.1057 64.4193 45.5374 65.4813 45.5374 66.7318C45.5374 67.9729 45.1113 69.0222 44.2577 69.8804C43.4061 70.7392 42.371 71.1689 41.1547 71.1689C39.8791 71.1689 38.8207 70.7271 37.9787 69.8449C37.1347 68.9627 36.7131 67.9158 36.7131 66.7025C36.7131 65.8912 36.91 65.1435 37.3025 64.4614C37.6943 63.7799 38.2348 63.2397 38.921 62.8412C39.6089 62.4427 40.3506 62.2432 41.1427 62.2432ZM29.0811 62.4566H30.7254V65.6645H33.5644V62.4566H35.1968V70.9561H33.5644V67.2271H30.7253V70.9561H29.081L29.0811 62.4566ZM27.4014 63.6128L26.2027 64.6699C25.7829 64.0858 25.355 63.7937 24.919 63.7937C24.7064 63.7937 24.5326 63.8514 24.3987 63.9637C24.2626 64.0779 24.1957 64.2066 24.1957 64.3484C24.1957 64.4902 24.2428 64.6267 24.3397 64.7529C24.4716 64.9222 24.8679 65.2859 25.5285 65.8436C26.1456 66.3611 26.52 66.6861 26.6522 66.8201C26.9794 67.1519 27.2119 67.4679 27.35 67.769C27.4861 68.0732 27.5551 68.4031 27.5551 68.76C27.5551 69.4583 27.3146 70.0323 26.8318 70.4884C26.3507 70.9415 25.7214 71.1687 24.9451 71.1687C24.3397 71.1687 23.8131 71.0209 23.3637 70.7252C22.9141 70.4272 22.528 69.9614 22.2085 69.3261L23.5708 68.5052C23.9807 69.2546 24.4518 69.6302 24.9842 69.6302C25.2626 69.6302 25.4968 69.5492 25.6859 69.3868C25.8754 69.2258 25.97 69.0382 25.97 68.8266C25.97 68.6356 25.8991 68.4421 25.755 68.2486C25.6132 68.0575 25.2976 67.7612 24.8109 67.3652C23.8843 66.6115 23.287 66.0292 23.0168 65.6187C22.7465 65.2081 22.6105 64.8002 22.6105 64.3915C22.6105 63.802 22.8354 63.2966 23.2828 62.8771C23.7324 62.454 24.2863 62.243 24.9451 62.243C25.3688 62.243 25.773 62.3415 26.1555 62.5375C26.5399 62.7348 26.9539 63.0918 27.4014 63.6128Z" fill="#32695B"/>
</svg>
