<svg width="49" height="49" viewBox="0 0 49 49" fill="none" xmlns="http://www.w3.org/2000/svg">
<path d="M37.2534 32.4145C35.6525 30.834 33.654 30.834 32.0633 32.4145C30.8499 33.6176 29.6365 34.8208 28.4435 36.0444C28.1172 36.3809 27.8419 36.4522 27.4442 36.2279C26.6591 35.7997 25.8229 35.453 25.0684 34.984C21.5505 32.7713 18.6037 29.9265 15.9933 26.7248C14.6983 25.1342 13.5461 23.4314 12.7406 21.5145C12.5774 21.127 12.608 20.8721 12.9241 20.556C14.1375 19.3834 15.3203 18.1802 16.5134 16.9771C18.1754 15.3048 18.1754 13.3471 16.5032 11.6647C15.5549 10.7063 14.6066 9.76818 13.6583 8.80972C12.6794 7.83086 11.7107 6.84181 10.7216 5.87314C9.12076 4.31309 7.12221 4.31309 5.53153 5.88334C4.30792 7.08652 3.1353 8.32029 1.89131 9.50307C0.739083 10.5941 0.157871 11.9298 0.0355112 13.4899C-0.158226 16.0288 0.463772 18.425 1.34069 20.7599C3.1353 25.593 5.86802 29.8857 9.18194 33.8216C13.6583 39.1441 19.0013 43.3552 25.2519 46.3938C28.0662 47.7601 30.9825 48.8103 34.1536 48.9837C36.3357 49.106 38.2323 48.5554 39.7516 46.8526C40.7917 45.6902 41.9643 44.6298 43.0655 43.5184C44.697 41.8665 44.7072 39.868 43.0859 38.2366C41.1486 36.2891 39.201 34.3518 37.2534 32.4145Z" fill="#519E8A"/>
<path d="M35.3059 24.2879L39.0684 23.6455C38.477 20.1889 36.8455 17.0586 34.3678 14.5707C31.7472 11.9502 28.4333 10.2984 24.7829 9.78857L24.2526 13.5715C27.0771 13.9691 29.6467 15.2437 31.6758 17.2728C33.5928 19.1897 34.847 21.6164 35.3059 24.2879Z" fill="#519E8A"/>
<path d="M41.1893 7.93282C36.8456 3.58914 31.3495 0.846304 25.2825 0L24.7523 3.78288C29.9934 4.51702 34.745 6.89279 38.4974 10.6349C42.0561 14.1934 44.3911 18.6901 45.2374 23.6353L49 22.993C48.0109 17.2626 45.3088 12.0624 41.1893 7.93282Z" fill="#519E8A"/>
</svg>
