<svg width="59" height="59" viewBox="0 0 59 59" fill="none" xmlns="http://www.w3.org/2000/svg">
<path d="M37.6448 0.12869C33.6351 -0.572822 29.7255 2.09516 29.0122 6.1073L25.346 26.7384L17.8436 28.0712C16.6566 23.5944 12.2184 20.7036 7.56775 21.5303C2.65704 22.4037 -0.62707 27.0888 0.231029 31.9974C1.09018 36.9052 5.76637 40.1774 10.678 39.3048C14.0481 38.7059 16.6518 36.31 17.6761 33.2802L26.8646 31.6473L25.2317 40.8348C22.2024 41.8597 19.8067 44.4632 19.2071 47.8329C18.3346 52.7444 21.6064 57.4203 26.514 58.2794C31.4231 59.138 36.1087 55.8535 36.9816 50.9432C37.8079 46.293 34.9169 41.8549 30.4407 40.6674L31.7734 33.165L52.4036 29.4987C56.4162 28.786 59.0837 24.876 58.3822 20.8662L33.1627 25.349L37.6448 0.12869ZM12.4551 33.7216C10.6251 35.5515 7.66219 35.5557 5.83742 33.7309C4.01265 31.9062 4.01691 28.9431 5.84679 27.1133C7.67715 25.2829 10.6397 25.2791 12.4644 27.1039C14.2892 28.9287 14.2854 31.8912 12.4551 33.7216ZM31.3989 52.6653C29.5689 54.4953 26.606 54.4995 24.7812 52.6747C22.9564 50.8499 22.9606 47.887 24.7906 46.057C26.6209 44.2267 29.5834 44.2229 31.4082 46.0477C33.2329 47.8724 33.2292 50.835 31.3989 52.6653Z" fill="#41645B"/>
</svg>
