<svg width="70" height="61" viewBox="0 0 70 61" fill="none" xmlns="http://www.w3.org/2000/svg">
<path d="M46.8101 32.6281C43.6602 27.7286 38.2956 24.8031 32.4594 24.8031C26.6233 24.8031 21.2587 27.7286 18.1094 32.6281L10.5194 44.4341C9.26005 46.3926 8.679 48.6557 8.83868 50.9768C8.99837 53.2985 9.88437 55.4605 11.4006 57.2305C12.9178 58.9989 14.9227 60.2076 17.1983 60.7263C19.4739 61.2449 21.8066 61.0234 23.9439 60.0868L24.0871 60.0234C29.465 57.7134 35.6104 57.7347 40.9744 60.0868C42.3582 60.6933 43.8242 61 45.3035 61C46.1078 61 46.9169 60.9089 47.7185 60.7268C49.9941 60.2087 51.999 59 53.5167 57.231C55.0335 55.4626 55.92 53.3001 56.0802 50.9779C56.2404 48.6557 55.6594 46.3931 54.4001 44.4335L46.8101 32.6281Z" fill="#32695B"/>
<path d="M12.5637 32.6127C14.8217 31.7479 16.5371 29.9337 17.3937 27.5039C18.2092 25.1918 18.1425 22.5815 17.2052 20.1534C16.2674 17.7268 14.5616 15.7459 12.4019 14.5749C10.1332 13.3454 7.6408 13.1452 5.38655 14.0116C0.851343 15.7501 -1.22987 21.3382 0.747736 26.4709C2.32747 30.5562 6.01193 33.1351 9.73697 33.1351C10.6881 33.1351 11.6419 32.9668 12.5637 32.6127Z" fill="#32695B"/>
<path d="M27.2909 23.3632C32.9604 23.3632 37.573 18.1235 37.573 11.6829C37.573 5.24082 32.9604 0 27.2909 0C21.6219 0 17.0097 5.24082 17.0097 11.6829C17.0097 18.1235 21.6219 23.3632 27.2909 23.3632Z" fill="#32695B"/>
<path d="M45.0482 26.2329H45.0488C45.9209 26.5215 46.8106 26.6594 47.6966 26.6594C51.8313 26.6594 55.8607 23.6588 57.3983 19.0474C58.2837 16.3929 58.2255 13.5861 57.2343 11.1446C56.1972 8.58862 54.2751 6.7334 51.8217 5.92028C49.3677 5.10716 46.7139 5.44636 44.3486 6.87452C42.089 8.23877 40.3576 10.4524 39.4732 13.1068C37.6067 18.7066 40.1077 24.5949 45.0482 26.2329Z" fill="#32695B"/>
<path d="M66.7015 24.8697L66.6999 24.8681C62.7901 21.9883 56.9427 23.2365 53.6641 27.652C50.3888 32.0695 50.9009 38.0085 54.8049 40.8903C56.2287 41.942 57.911 42.4447 59.6328 42.4447C62.6336 42.4447 65.7557 40.9175 67.8428 38.1091C71.1176 33.6915 70.606 27.7526 66.7015 24.8697Z" fill="#32695B"/>
</svg>
