<svg width="56" height="55" viewBox="0 0 56 55" fill="none" xmlns="http://www.w3.org/2000/svg">
<path d="M18.4084 12.0447C21.5454 12.0447 24.0884 9.34841 24.0884 6.02236C24.0884 2.6963 21.5454 0 18.4084 0C15.2714 0 12.7283 2.6963 12.7283 6.02236C12.7283 9.34841 15.2714 12.0447 18.4084 12.0447Z" fill="#41645B"/>
<path d="M38.1678 42.2867L36.0316 40.4675C35.5487 40.0558 34.8421 40.1371 34.4539 40.6497C34.0662 41.1617 34.1428 41.9109 34.6257 42.322L36.8053 44.1783V49.2262C36.8053 49.2507 34.8939 53.2184 34.8939 53.2184C34.6077 53.8015 34.8218 54.5196 35.3712 54.8231C35.5369 54.914 35.7138 54.9576 35.8879 54.9576C36.2931 54.9576 36.6842 54.7246 36.8848 54.3171L38.8159 50.3834L40.9769 54.3625C41.1848 54.7449 41.5618 54.9588 41.9506 54.9588C42.1405 54.9588 42.3332 54.9074 42.5096 54.7992C43.0466 54.4712 43.2314 53.7435 42.922 53.1748L41.036 49.7024H48.02V53.768C48.02 54.4258 48.5226 54.9582 49.1424 54.9582C49.7623 54.9582 50.2638 54.4246 50.2638 53.768V49.2686C50.2655 49.2549 50.2722 49.2417 50.2722 49.228V45.4652L45.0458 42.2885H38.1678V42.2867Z" fill="#41645B"/>
<path d="M53.1765 39.8676C52.4828 39.1746 52.2495 38.3638 51.4714 37.7765C51.3356 37.675 51.1981 37.5704 51.0538 37.4838C50.967 37.4324 50.9394 37.3715 50.949 37.2723C50.9823 36.9311 51.0144 36.5888 51.0403 36.2482C51.0865 35.637 50.9191 35.079 50.4565 34.7182C50.2706 34.5724 49.3526 34.101 48.9531 35.7147C48.8663 36.0648 48.748 36.4137 48.5897 36.7346C48.0132 37.9098 47.2801 38.9846 46.5797 40.0791C46.2596 40.578 45.939 41.0769 45.6206 41.5746L50.5275 44.5373C50.5275 44.5373 51.4736 43.441 51.6066 43.5031C51.7903 43.5898 51.9751 43.6734 52.16 43.7589C52.6998 44.0086 53.2633 44.1239 53.8538 44.0875C54.8568 44.0253 55.9021 43.4601 55.9979 42.1846C56.0852 41.0147 53.4103 40.1012 53.1765 39.8676Z" fill="#41645B"/>
<path d="M34.8917 30.671L44.1544 41.3063L45.0267 40.4525L35.76 29.8125C32.9279 26.6202 30.4373 24.0452 28.647 24.8482C28.5687 24.8834 28.4943 24.9247 28.4222 24.9719C24.1921 24.3553 23.2967 22.269 21.942 19.1126C21.2072 17.3997 20.3738 15.458 18.8834 13.7451C18.8727 13.7325 18.8592 13.7242 18.8479 13.7116C18.3272 13.1016 17.6916 12.6087 17.043 12.2753C17.043 12.2753 16.4953 11.9575 15.8698 11.8302C15.272 11.7083 14.2368 11.7406 13.5809 11.8254C6.65332 12.8997 3.57947 18.3264 0.616052 23.5911L0.312893 24.13C-0.312022 25.2377 0.0283284 26.6734 1.07361 27.3366C1.42805 27.5612 1.81798 27.6682 2.20341 27.6682C2.95342 27.6682 3.68484 27.2625 4.09788 26.53L4.40329 25.9875C5.93205 23.2709 7.2912 20.8691 9.02732 19.1329L7.16554 28.3463C6.90521 29.6344 7.24556 30.8227 7.92006 31.7876L7.3498 41.0118L3.72428 50.9498C3.1653 52.4829 3.88375 54.2066 5.32968 54.7987C5.66214 54.9355 6.00474 55 6.34115 55C7.46701 55 8.52863 54.2765 8.95914 53.0965L12.7391 42.733C12.8416 42.4516 12.9036 42.1553 12.9222 41.8542L13.2541 36.4842L16.5888 42.0728L19.319 52.7273C19.6537 54.059 20.7886 54.9373 22.0288 54.9361C22.2677 54.9361 22.5112 54.9032 22.754 54.8357C24.2518 54.4121 25.1421 52.7816 24.7426 51.1936L21.902 40.0988C21.8288 39.8085 21.7144 39.5301 21.5617 39.275L17.021 31.667C17.1664 31.3599 17.2831 31.0277 17.3575 30.6596L18.8772 23.1407C20.2262 25.8441 22.3106 28.5464 27.089 29.4695C27.0879 29.8525 27.0969 30.2593 27.1155 30.6913L28.3016 30.6328C28.2853 30.2617 28.2791 29.9278 28.278 29.6141C29.3024 29.543 30.1747 28.7263 30.3189 27.6054C30.3871 27.0785 30.2767 26.573 30.0468 26.1429C31.4961 26.8401 33.7038 29.3321 34.8917 30.671Z" fill="#41645B"/>
</svg>
